<svg width="148" height="36" viewBox="0 0 148 36" fill="none" xmlns="http://www.w3.org/2000/svg">
<path d="M124.692 35.3881H129.229V27.5354L133.713 22.8442L142.577 35.3881H148L136.946 19.6317L146.279 9.89235H140.596L129.229 21.8754V0H124.692V35.3881ZM11.4193 36C17.6243 36 21.9 32.8895 21.9 28.0963C21.9 23.6091 18.98 21.2635 14.4957 20.7535L9.125 20.1416C6.72643 19.8867 5.31857 18.9688 5.31857 16.5212C5.31857 14.3796 7.56071 12.8499 10.7936 12.8499C14.2871 12.8499 16.3728 14.3796 16.8943 17.1841H21.4828C20.9614 11.728 16.6857 9.28045 10.8457 9.28045C4.79714 9.28045 0.73 12.4419 0.73 16.6232C0.73 20.9065 3.38928 23.5071 8.13428 24.017L13.1921 24.5779C15.9557 24.8839 17.2593 26.0567 17.2593 28.3513C17.2593 30.7989 15.0693 32.4306 11.4714 32.4306C7.61285 32.4306 5.31857 30.6969 4.58857 27.3824H0C0.469285 32.8385 4.64071 36 11.4193 36ZM40.0978 35.3881C45.625 35.3881 47.815 33.1955 47.815 27.7394L47.8671 9.89235H43.7478L43.6957 31.4618L45.0514 30.9518L28.105 9.79037L24.7678 12.289L41.61 33.1955L42.3921 31.5127H24.2986V35.3371L40.0978 35.3881ZM87.6382 35.3881H95.4596V31.6147H88.9418C86.9082 31.6147 86.2825 30.8499 86.2825 28.7592V13.5127H94.7818V9.89235H86.2825V1.47875H81.7982V8.77054C81.7982 9.48442 81.3811 9.89235 80.6511 9.89235H75.4368V13.5127H81.7982V29.4221C81.7982 33.7054 83.6754 35.3881 87.6382 35.3881ZM109.277 36C115.222 36 119.341 32.7875 120.384 27.3824H115.9C115.274 30.6969 113.136 32.1756 109.277 32.1756C104.48 32.1756 101.925 29.5241 101.56 23.813H120.749C121.218 14.6856 116.89 9.28045 109.121 9.28045C101.404 9.28045 96.8675 14.2266 96.8675 22.5892C96.8675 31.0028 101.456 36 109.277 36ZM101.56 20.3966C102.186 15.3484 104.637 12.9009 109.017 12.9009C113.501 12.9009 115.847 15.3484 116.16 20.3966H101.56ZM63.1832 36C69.3882 36 73.6639 32.8895 73.6639 28.0963C73.6639 23.6091 70.7439 21.2635 66.2597 20.7535L60.889 20.1416C58.4904 19.8867 57.0825 18.9688 57.0825 16.5212C57.0825 14.3796 59.3247 12.8499 62.5575 12.8499C66.0511 12.8499 68.1368 14.3796 68.6582 17.1841H73.2468C72.7254 11.728 68.4497 9.28045 62.6097 9.28045C56.5611 9.28045 52.494 12.4419 52.494 16.6232C52.494 20.9065 55.1532 23.5071 59.8982 24.017L64.9561 24.5779C67.7197 24.8839 69.0232 26.0567 69.0232 28.3513C69.0232 30.7989 66.8332 32.4306 63.2354 32.4306C59.3768 32.4306 57.0825 30.6969 56.3525 27.3824H51.764C52.2332 32.8385 56.4047 36 63.1832 36Z" fill="#1A1A1A"/>
</svg>
